<svg width="36" height="29" viewBox="0 0 36 29" fill="none" xmlns="http://www.w3.org/2000/svg">
<path d="M35.375 0.2995C35.375 2.59763 34.9224 4.87357 34.043 6.99677C33.1635 9.11987 31.874 11.0486 30.249 12.6735C29.6618 13.2607 29.0345 13.8035 28.373 14.2995C29.0345 14.7955 29.6618 15.3383 30.249 15.9255C31.874 17.5504 33.1635 19.4791 34.043 21.6022C34.9224 23.7254 35.375 26.0014 35.375 28.2995H28.374C28.374 26.9208 28.1027 25.5557 27.5752 24.2819C27.0476 23.0081 26.2738 21.8506 25.2988 20.8757C24.3239 19.9007 23.1664 19.1269 21.8926 18.5993C20.6188 18.0717 19.2537 17.8005 17.875 17.8005V10.7985C19.2537 10.7985 20.6188 10.5272 21.8926 9.99969C23.1664 9.47205 24.3239 8.69828 25.2988 7.72333C26.2738 6.74837 27.0476 5.59092 27.5752 4.31708C28.1027 3.04333 28.374 1.67818 28.374 0.2995H35.375Z" fill="#C42A2D"/>
<path d="M17.875 17.7995V10.7995L17.875 10.7988C16.4962 10.7988 15.1309 10.5273 13.8571 9.99963C12.5832 9.47199 11.4258 8.69861 10.4508 7.72366C9.47589 6.7487 8.70251 5.59126 8.17487 4.31742C7.64723 3.04358 7.37566 1.67829 7.37566 0.2995H0.375C0.375 2.59763 0.827651 4.87326 1.70711 6.99646C2.58657 9.11966 3.87561 11.0488 5.50063 12.6739C6.08748 13.2607 6.714 13.8037 7.375 14.2995C6.714 14.7952 6.08748 15.3383 5.50063 15.9251C3.87561 17.5502 2.58657 19.4793 1.70711 21.6025C0.827651 23.7257 0.375 26.0014 0.375 28.2995H7.37566C7.37566 26.9207 7.64723 25.5554 8.17487 24.2816C8.70251 23.0077 9.47589 21.8503 10.4508 20.8753C11.4258 19.9004 12.5832 19.127 13.8571 18.5994C15.1309 18.0717 16.4962 17.8002 17.875 17.8002L17.875 17.7995Z" fill="#C42A2D"/>
<path d="M17.875 17.7995C15.5769 17.7995 13.3012 17.3469 11.178 16.4674C9.8216 15.9055 8.54435 15.1765 7.375 14.2995C8.54435 13.4225 9.8216 12.6935 11.178 12.1316C13.3012 11.2522 15.5769 10.7995 17.875 10.7995C20.1731 10.7995 22.4488 11.2522 24.572 12.1316C25.9284 12.6935 27.2057 13.4225 28.375 14.2995C27.2057 15.1765 25.9284 15.9055 24.572 16.4674C22.4488 17.3469 20.1731 17.7995 17.875 17.7995Z" fill="#C42A2D"/>
<path d="M17.875 17.7995C15.5769 17.7995 13.3012 17.3469 11.178 16.4674C9.8216 15.9055 8.54435 15.1765 7.375 14.2995C8.54435 13.4225 9.8216 12.6935 11.178 12.1316C13.3012 11.2522 15.5769 10.7995 17.875 10.7995C20.1731 10.7995 22.4488 11.2522 24.572 12.1316C25.9284 12.6935 27.2057 13.4225 28.375 14.2995C27.2057 15.1765 25.9284 15.9055 24.572 16.4674C22.4488 17.3469 20.1731 17.7995 17.875 17.7995Z" fill="black" fill-opacity="0.2"/>
</svg>
